<mxfile host="app.diagrams.net" agent="Mozilla/5.0 (Windows NT 10.0; Win64; x64) AppleWebKit/537.36 (KHTML, like Gecko) Chrome/135.0.0.0 Safari/537.36 Edg/135.0.0.0" version="26.2.14">
  <diagram name="Page-1" id="OwEAMcpWbKgiCGqcCvgx">
    <mxGraphModel dx="1418" dy="752" grid="1" gridSize="10" guides="1" tooltips="1" connect="1" arrows="1" fold="1" page="1" pageScale="1" pageWidth="850" pageHeight="1100" math="0" shadow="0">
      <root>
        <mxCell id="0" />
        <mxCell id="1" parent="0" />
        <mxCell id="H1I79uzEhBS_KcUdRnxt-1" value="&#39;User clicks Add Document button&#39;" style="whiteSpace=wrap;strokeWidth=2;" vertex="1" parent="1">
          <mxGeometry x="137" y="20" width="260" height="78" as="geometry" />
        </mxCell>
        <mxCell id="H1I79uzEhBS_KcUdRnxt-2" value="&#39;Streamlit file uploader returns file object&#39;" style="whiteSpace=wrap;strokeWidth=2;" vertex="1" parent="1">
          <mxGeometry x="137" y="148" width="260" height="78" as="geometry" />
        </mxCell>
        <mxCell id="H1I79uzEhBS_KcUdRnxt-3" value="&#39;Save uploaded file to Docs/Documentation&#39;" style="whiteSpace=wrap;strokeWidth=2;" vertex="1" parent="1">
          <mxGeometry x="137" y="276" width="260" height="78" as="geometry" />
        </mxCell>
        <mxCell id="H1I79uzEhBS_KcUdRnxt-4" value="&#39;Call add_single_file_to_vectorstore&#39;" style="whiteSpace=wrap;strokeWidth=2;" vertex="1" parent="1">
          <mxGeometry x="125" y="404" width="284" height="78" as="geometry" />
        </mxCell>
        <mxCell id="H1I79uzEhBS_KcUdRnxt-5" value="Is file valid?" style="rhombus;strokeWidth=2;whiteSpace=wrap;" vertex="1" parent="1">
          <mxGeometry x="198" y="532" width="139" height="139" as="geometry" />
        </mxCell>
        <mxCell id="H1I79uzEhBS_KcUdRnxt-6" value="&#39;Show error in Streamlit&#39;" style="whiteSpace=wrap;strokeWidth=2;" vertex="1" parent="1">
          <mxGeometry x="20" y="1805" width="232" height="54" as="geometry" />
        </mxCell>
        <mxCell id="H1I79uzEhBS_KcUdRnxt-7" value="&#39;Read file content&#39;" style="whiteSpace=wrap;strokeWidth=2;" vertex="1" parent="1">
          <mxGeometry x="237" y="744" width="189" height="54" as="geometry" />
        </mxCell>
        <mxCell id="H1I79uzEhBS_KcUdRnxt-8" value="Is text empty?" style="rhombus;strokeWidth=2;whiteSpace=wrap;" vertex="1" parent="1">
          <mxGeometry x="254" y="848" width="155" height="155" as="geometry" />
        </mxCell>
        <mxCell id="H1I79uzEhBS_KcUdRnxt-9" value="&#39;Load local embedding model&#39;" style="whiteSpace=wrap;strokeWidth=2;" vertex="1" parent="1">
          <mxGeometry x="302" y="1076" width="260" height="78" as="geometry" />
        </mxCell>
        <mxCell id="H1I79uzEhBS_KcUdRnxt-10" value="&#39;Create embedding function&#39;" style="whiteSpace=wrap;strokeWidth=2;" vertex="1" parent="1">
          <mxGeometry x="302" y="1204" width="260" height="78" as="geometry" />
        </mxCell>
        <mxCell id="H1I79uzEhBS_KcUdRnxt-11" value="&#39;Create SemanticChunker&#39;" style="whiteSpace=wrap;strokeWidth=2;" vertex="1" parent="1">
          <mxGeometry x="311" y="1332" width="242" height="54" as="geometry" />
        </mxCell>
        <mxCell id="H1I79uzEhBS_KcUdRnxt-12" value="&#39;Split text into chunks&#39;" style="whiteSpace=wrap;strokeWidth=2;" vertex="1" parent="1">
          <mxGeometry x="323" y="1436" width="218" height="54" as="geometry" />
        </mxCell>
        <mxCell id="H1I79uzEhBS_KcUdRnxt-13" value="Chunks available?" style="rhombus;strokeWidth=2;whiteSpace=wrap;" vertex="1" parent="1">
          <mxGeometry x="342" y="1540" width="180" height="180" as="geometry" />
        </mxCell>
        <mxCell id="H1I79uzEhBS_KcUdRnxt-14" value="&#39;Load or create vector store&#39;" style="whiteSpace=wrap;strokeWidth=2;" vertex="1" parent="1">
          <mxGeometry x="310" y="1793" width="260" height="78" as="geometry" />
        </mxCell>
        <mxCell id="H1I79uzEhBS_KcUdRnxt-15" value="&#39;Add chunks to vector store&#39;" style="whiteSpace=wrap;strokeWidth=2;" vertex="1" parent="1">
          <mxGeometry x="311" y="1921" width="257" height="54" as="geometry" />
        </mxCell>
        <mxCell id="H1I79uzEhBS_KcUdRnxt-16" value="&#39;Show success message&#39;" style="whiteSpace=wrap;strokeWidth=2;" vertex="1" parent="1">
          <mxGeometry x="327" y="2025" width="225" height="54" as="geometry" />
        </mxCell>
        <mxCell id="H1I79uzEhBS_KcUdRnxt-17" value="" style="curved=1;startArrow=none;endArrow=block;exitX=0.5;exitY=1;entryX=0.5;entryY=0;rounded=0;" edge="1" parent="1" source="H1I79uzEhBS_KcUdRnxt-1" target="H1I79uzEhBS_KcUdRnxt-2">
          <mxGeometry relative="1" as="geometry">
            <Array as="points" />
          </mxGeometry>
        </mxCell>
        <mxCell id="H1I79uzEhBS_KcUdRnxt-18" value="" style="curved=1;startArrow=none;endArrow=block;exitX=0.5;exitY=1;entryX=0.5;entryY=0;rounded=0;" edge="1" parent="1" source="H1I79uzEhBS_KcUdRnxt-2" target="H1I79uzEhBS_KcUdRnxt-3">
          <mxGeometry relative="1" as="geometry">
            <Array as="points" />
          </mxGeometry>
        </mxCell>
        <mxCell id="H1I79uzEhBS_KcUdRnxt-19" value="" style="curved=1;startArrow=none;endArrow=block;exitX=0.5;exitY=1;entryX=0.5;entryY=0;rounded=0;" edge="1" parent="1" source="H1I79uzEhBS_KcUdRnxt-3" target="H1I79uzEhBS_KcUdRnxt-4">
          <mxGeometry relative="1" as="geometry">
            <Array as="points" />
          </mxGeometry>
        </mxCell>
        <mxCell id="H1I79uzEhBS_KcUdRnxt-20" value="" style="curved=1;startArrow=none;endArrow=block;exitX=0.5;exitY=1;entryX=0.5;entryY=0;rounded=0;" edge="1" parent="1" source="H1I79uzEhBS_KcUdRnxt-4" target="H1I79uzEhBS_KcUdRnxt-5">
          <mxGeometry relative="1" as="geometry">
            <Array as="points" />
          </mxGeometry>
        </mxCell>
        <mxCell id="H1I79uzEhBS_KcUdRnxt-21" value="No" style="curved=1;startArrow=none;endArrow=block;exitX=0;exitY=0.82;entryX=0.45;entryY=-0.01;rounded=0;" edge="1" parent="1" source="H1I79uzEhBS_KcUdRnxt-5" target="H1I79uzEhBS_KcUdRnxt-6">
          <mxGeometry relative="1" as="geometry">
            <Array as="points">
              <mxPoint x="102" y="707" />
              <mxPoint x="102" y="1756" />
            </Array>
          </mxGeometry>
        </mxCell>
        <mxCell id="H1I79uzEhBS_KcUdRnxt-22" value="Yes" style="curved=1;startArrow=none;endArrow=block;exitX=0.8;exitY=1;entryX=0.5;entryY=0;rounded=0;" edge="1" parent="1" source="H1I79uzEhBS_KcUdRnxt-5" target="H1I79uzEhBS_KcUdRnxt-7">
          <mxGeometry relative="1" as="geometry">
            <Array as="points">
              <mxPoint x="332" y="707" />
            </Array>
          </mxGeometry>
        </mxCell>
        <mxCell id="H1I79uzEhBS_KcUdRnxt-23" value="" style="curved=1;startArrow=none;endArrow=block;exitX=0.5;exitY=1;entryX=0.5;entryY=0;rounded=0;" edge="1" parent="1" source="H1I79uzEhBS_KcUdRnxt-7" target="H1I79uzEhBS_KcUdRnxt-8">
          <mxGeometry relative="1" as="geometry">
            <Array as="points" />
          </mxGeometry>
        </mxCell>
        <mxCell id="H1I79uzEhBS_KcUdRnxt-24" value="Yes" style="curved=1;startArrow=none;endArrow=block;exitX=0;exitY=0.88;entryX=0.57;entryY=-0.01;rounded=0;" edge="1" parent="1" source="H1I79uzEhBS_KcUdRnxt-8" target="H1I79uzEhBS_KcUdRnxt-6">
          <mxGeometry relative="1" as="geometry">
            <Array as="points">
              <mxPoint x="184" y="1039" />
              <mxPoint x="184" y="1756" />
            </Array>
          </mxGeometry>
        </mxCell>
        <mxCell id="H1I79uzEhBS_KcUdRnxt-25" value="No" style="curved=1;startArrow=none;endArrow=block;exitX=0.94;exitY=1;entryX=0.5;entryY=0;rounded=0;" edge="1" parent="1" source="H1I79uzEhBS_KcUdRnxt-8" target="H1I79uzEhBS_KcUdRnxt-9">
          <mxGeometry relative="1" as="geometry">
            <Array as="points">
              <mxPoint x="432" y="1039" />
            </Array>
          </mxGeometry>
        </mxCell>
        <mxCell id="H1I79uzEhBS_KcUdRnxt-26" value="" style="curved=1;startArrow=none;endArrow=block;exitX=0.5;exitY=1;entryX=0.5;entryY=0;rounded=0;" edge="1" parent="1" source="H1I79uzEhBS_KcUdRnxt-9" target="H1I79uzEhBS_KcUdRnxt-10">
          <mxGeometry relative="1" as="geometry">
            <Array as="points" />
          </mxGeometry>
        </mxCell>
        <mxCell id="H1I79uzEhBS_KcUdRnxt-27" value="" style="curved=1;startArrow=none;endArrow=block;exitX=0.5;exitY=1;entryX=0.5;entryY=0;rounded=0;" edge="1" parent="1" source="H1I79uzEhBS_KcUdRnxt-10" target="H1I79uzEhBS_KcUdRnxt-11">
          <mxGeometry relative="1" as="geometry">
            <Array as="points" />
          </mxGeometry>
        </mxCell>
        <mxCell id="H1I79uzEhBS_KcUdRnxt-28" value="" style="curved=1;startArrow=none;endArrow=block;exitX=0.5;exitY=1;entryX=0.5;entryY=0;rounded=0;" edge="1" parent="1" source="H1I79uzEhBS_KcUdRnxt-11" target="H1I79uzEhBS_KcUdRnxt-12">
          <mxGeometry relative="1" as="geometry">
            <Array as="points" />
          </mxGeometry>
        </mxCell>
        <mxCell id="H1I79uzEhBS_KcUdRnxt-29" value="" style="curved=1;startArrow=none;endArrow=block;exitX=0.5;exitY=1;entryX=0.5;entryY=0;rounded=0;" edge="1" parent="1" source="H1I79uzEhBS_KcUdRnxt-12" target="H1I79uzEhBS_KcUdRnxt-13">
          <mxGeometry relative="1" as="geometry">
            <Array as="points" />
          </mxGeometry>
        </mxCell>
        <mxCell id="H1I79uzEhBS_KcUdRnxt-30" value="No" style="curved=1;startArrow=none;endArrow=block;exitX=0;exitY=0.93;entryX=0.73;entryY=-0.01;rounded=0;" edge="1" parent="1" source="H1I79uzEhBS_KcUdRnxt-13" target="H1I79uzEhBS_KcUdRnxt-6">
          <mxGeometry relative="1" as="geometry">
            <Array as="points">
              <mxPoint x="285" y="1756" />
            </Array>
          </mxGeometry>
        </mxCell>
        <mxCell id="H1I79uzEhBS_KcUdRnxt-31" value="Yes" style="curved=1;startArrow=none;endArrow=block;exitX=0.53;exitY=1;entryX=0.5;entryY=-0.01;rounded=0;" edge="1" parent="1" source="H1I79uzEhBS_KcUdRnxt-13" target="H1I79uzEhBS_KcUdRnxt-14">
          <mxGeometry relative="1" as="geometry">
            <Array as="points">
              <mxPoint x="440" y="1756" />
            </Array>
          </mxGeometry>
        </mxCell>
        <mxCell id="H1I79uzEhBS_KcUdRnxt-32" value="" style="curved=1;startArrow=none;endArrow=block;exitX=0.5;exitY=0.99;entryX=0.5;entryY=-0.01;rounded=0;" edge="1" parent="1" source="H1I79uzEhBS_KcUdRnxt-14" target="H1I79uzEhBS_KcUdRnxt-15">
          <mxGeometry relative="1" as="geometry">
            <Array as="points" />
          </mxGeometry>
        </mxCell>
        <mxCell id="H1I79uzEhBS_KcUdRnxt-33" value="" style="curved=1;startArrow=none;endArrow=block;exitX=0.5;exitY=0.99;entryX=0.5;entryY=-0.01;rounded=0;" edge="1" parent="1" source="H1I79uzEhBS_KcUdRnxt-15" target="H1I79uzEhBS_KcUdRnxt-16">
          <mxGeometry relative="1" as="geometry">
            <Array as="points" />
          </mxGeometry>
        </mxCell>
      </root>
    </mxGraphModel>
  </diagram>
</mxfile>
